# xmcd
#
# Track frame offsets:
#  150
#  6348
#  32034
#  65750
#  91767
#  118700
#  146020
#  177603
#  197922
#  229627
#
# Disc length: 3539 seconds
#
# Revision: 0
# Processed by: cddbd v1.5.1PL2 Copyright (c) Steve Scherf et al.
# Submitted via: Collectorz.com_Music_Collector 6.9
#
DISCID=8c0dd10a
DTITLE=Stefania Tallini - Dreams
DYEAR=2005
DGENRE=jazz
TTITLE0=Opening
TTITLE1=Drams
TTITLE2=Selinunte
TTITLE3=Per Un Attimo Ancora
TTITLE4=Without You
TTITLE5=Viaggio In Sicilia
TTITLE6=La Storia Infinita
TTITLE7=New House
TTITLE8=A Kiss
TTITLE9=Ending
EXTD=
EXTT0=
EXTT1=
EXTT2=
EXTT3=
EXTT4=
EXTT5=
EXTT6=
EXTT7=
EXTT8=
EXTT9=
PLAYORDER=
